<svg width="20" height="20" viewBox="0 0 20 20" fill="none" xmlns="http://www.w3.org/2000/svg">
    <path fill-rule="evenodd" clip-rule="evenodd" d="M13.3332 9.9998C13.3332 11.8407 11.8408 13.3331 9.99987 13.3331C8.15892 13.3331 6.66654 11.8407 6.66654 9.9998C6.66654 8.15885 8.15892 6.66646 9.99987 6.66646C11.8408 6.66646 13.3332 8.15885 13.3332 9.9998ZM12.2499 9.9998C12.2499 11.2424 11.2425 12.2498 9.99987 12.2498C8.75723 12.2498 7.74987 11.2424 7.74987 9.9998C7.74987 8.75716 8.75723 7.7498 9.99987 7.7498C11.2425 7.7498 12.2499 8.75716 12.2499 9.9998Z" fill="#626F84"/>
    <path fill-rule="evenodd" clip-rule="evenodd" d="M9.15242 2.50391C8.41432 2.50391 7.78926 3.0482 7.68779 3.77929C7.56195 4.68595 6.61635 5.23189 5.76823 4.88754C5.08435 4.60988 4.30045 4.87905 3.9314 5.51826L3.13412 6.89919C2.76955 7.53064 2.9197 8.33359 3.48781 8.79064C4.22248 9.38168 4.21039 10.5215 3.45614 11.1087C2.87374 11.5621 2.7149 12.3756 3.08395 13.0148L3.88123 14.3957C4.2458 15.0272 5.01625 15.2986 5.69612 15.0352C6.5753 14.6944 7.55637 15.2748 7.68779 16.2216C7.78926 16.9527 8.41432 17.497 9.15242 17.497H10.747C11.4761 17.497 12.0964 16.9655 12.2082 16.245C12.3602 15.2651 13.3791 14.6769 14.3036 15.0352C14.9835 15.2986 15.7539 15.0272 16.1185 14.3957L16.9158 13.0148C17.2848 12.3756 17.126 11.5621 16.5436 11.1087C15.7894 10.5215 15.7773 9.38168 16.5119 8.79064C17.08 8.33359 17.2302 7.53064 16.8656 6.89919L16.0683 5.51826C15.6993 4.87905 14.9154 4.60988 14.2315 4.88754C13.3459 5.24714 12.3527 4.6877 12.2082 3.75594C12.0964 3.03541 11.4761 2.50391 10.747 2.50391H9.15242ZM8.76084 3.92822C8.78797 3.73276 8.95508 3.58724 9.15242 3.58724L10.747 3.58724C10.9419 3.58724 11.1078 3.72934 11.1376 3.92198C11.3913 5.55718 13.1179 6.50892 14.6391 5.8913C14.8219 5.81706 15.0315 5.88903 15.1301 6.05993L15.9274 7.44086C16.0249 7.60968 15.9848 7.82436 15.8329 7.94655C14.5436 8.9838 14.5826 10.955 15.8781 11.9635C16.0338 12.0848 16.0763 12.3022 15.9776 12.4731L15.1803 13.8541C15.0829 14.0229 14.8769 14.0955 14.6951 14.025C13.1255 13.4167 11.3957 14.4155 11.1376 16.0789C11.1078 16.2716 10.9419 16.4137 10.747 16.4137H9.15242C8.95508 16.4137 8.78797 16.2681 8.76084 16.0727C8.53512 14.4465 6.84759 13.4271 5.30465 14.025C5.12288 14.0955 4.91689 14.0229 4.81942 13.8541L4.02214 12.4731C3.92347 12.3022 3.96594 12.0848 4.12165 11.9635C5.41711 10.955 5.45619 8.9838 4.16688 7.94655C4.01499 7.82436 3.97485 7.60968 4.07232 7.44086L4.8696 6.05993C4.96826 5.88903 5.17785 5.81706 5.36069 5.8913C6.86297 6.50125 8.53793 5.53422 8.76084 3.92822Z" fill="#626F84"/>
</svg>